<svg xmlns="http://www.w3.org/2000/svg" xmlns:xlink="http://www.w3.org/1999/xlink" width="540" height="407.36"><rect width="540" height="407.36" rx="5" ry="5" class="a"/><svg y="0%" x="0%"><circle cx="20" cy="20" r="6" fill="#ff5f58"/><circle cx="40" cy="20" r="6" fill="#ffbd2e"/><circle cx="60" cy="20" r="6" fill="#18c132"/></svg><svg height="347.36" viewBox="0 0 50 34.736" width="500" x="15" xmlns="http://www.w3.org/2000/svg" xmlns:xlink="http://www.w3.org/1999/xlink" y="50"><style>@keyframes o{0%{transform:translateX(0)}.5%{transform:translateX(-100px)}8.2%{transform:translateX(-150px)}16.4%{transform:translateX(-200px)}24.6%{transform:translateX(-250px)}27.7%{transform:translateX(-300px)}29.4%{transform:translateX(-350px)}29.9%{transform:translateX(-400px)}32.1%{transform:translateX(-500px)}32.9%{transform:translateX(-550px)}33%{transform:translateX(-600px)}41.3%{transform:translateX(-700px)}49.1%{transform:translateX(-800px)}52.2%{transform:translateX(-900px)}57.4%{transform:translateX(-1000px)}57.9%{transform:translateX(-1100px)}58.4%{transform:translateX(-1200px)}61.5%{transform:translateX(-1300px)}65.7%{transform:translateX(-1400px)}73.7%{transform:translateX(-1500px)}81.7%{transform:translateX(-1600px)}82.1%{transform:translateX(-1650px)}83%{transform:translateX(-1750px)}to{transform:translateX(-1800px)}}.a{fill:#282d35}.f{fill:#b9c0cb;white-space:pre}.g{fill:#dbab79}.h,.i{white-space:pre}.i{fill:#b9c0cb;font-weight:700}.j{fill:#e88388}.k{fill:#a8cc8c}.l,.m{fill:#e88388;white-space:pre}.m{fill:#a8cc8c}</style><g font-family="Monaco,Consolas,Menlo,'Bitstream Vera Sans Mono','Powerline Symbols',monospace" font-size="1.67"><defs><symbol id="1"><text y="1.67" class="f">Time:</text><text x="7.014" y="1.67" class="f">0s</text></symbol><symbol id="2"><path class="g" d="M0 0h6v2.171H0z"/><text y="1.67" class="h">RUNS</text><text x="7.014" y="1.67" class="f">tests/</text><text x="13.026" y="1.67" class="i">login.kt</text></symbol><symbol id="3"><path class="g" d="M0 0h6v2.171H0z"/><text y="1.67" class="h">RUNS</text><text x="7.014" y="1.67" class="f">tests/</text><text x="13.026" y="1.67" class="i">signup.kt</text></symbol><symbol id="4"><path class="g" d="M0 0h6v2.171H0z"/><text y="1.67" class="h">RUNS</text><text x="7.014" y="1.67" class="f">tests/</text><text x="13.026" y="1.67" class="i">forgot-password.kt</text></symbol><symbol id="5"><path class="g" d="M0 0h6v2.171H0z"/><text y="1.67" class="h">RUNS</text><text x="7.014" y="1.67" class="f">tests/</text><text x="13.026" y="1.67" class="i">reset-password.kt</text></symbol><symbol id="6"><text y="1.67" class="f">Tests:</text><text x="7.014" y="1.67" class="f">4</text><text x="9.018" y="1.67" class="f">total</text></symbol><symbol id="7"><text y="1.67" class="f">Time:</text><text x="7.014" y="1.67" class="f">3s</text></symbol><symbol id="8"><path class="j" d="M0 0h6v2.171H0z"/><text y="1.67" class="h">FAIL</text><text x="7.014" y="1.67" class="f">tests/</text><text x="13.026" y="1.67" class="i">login.kt</text></symbol><symbol id="9"><path class="g" d="M0 0h6v2.171H0z"/><text y="1.67" class="h">RUNS</text><text x="7.014" y="1.67" class="f">tests/</text><text x="13.026" y="1.67" class="i">view-profile.kt</text></symbol><symbol id="10"><path class="k" d="M0 0h6v2.171H0z"/><text y="1.67" class="h">PASS</text><text x="7.014" y="1.67" class="f">tests/</text><text x="13.026" y="1.67" class="i">reset-password.kt</text></symbol><symbol id="11"><path class="g" d="M0 0h6v2.171H0z"/><text y="1.67" class="h">RUNS</text><text x="7.014" y="1.67" class="f">tests/</text><text x="13.026" y="1.67" class="i">edit-profile.kt</text></symbol><symbol id="12"><path class="k" d="M0 0h6v2.171H0z"/><text y="1.67" class="h">PASS</text><text x="7.014" y="1.67" class="f">tests/</text><text x="13.026" y="1.67" class="i">forgot-password.kt</text></symbol><symbol id="13"><path class="g" d="M0 0h6v2.171H0z"/><text y="1.67" class="h">RUNS</text><text x="7.014" y="1.67" class="f">tests/</text><text x="13.026" y="1.67" class="i">delete-profile.kt</text></symbol><symbol id="14"><path class="k" d="M0 0h6v2.171H0z"/><text y="1.67" class="h">PASS</text><text x="7.014" y="1.67" class="f">tests/</text><text x="13.026" y="1.67" class="i">signup.kt</text></symbol><symbol id="15"><path class="g" d="M0 0h6v2.171H0z"/><text y="1.67" class="h">RUNS</text><text x="7.014" y="1.67" class="f">tests/</text><text x="13.026" y="1.67" class="i">posts.kt</text></symbol><symbol id="16"><text y="1.67" class="f">Tests:</text><text x="7.014" y="1.67" class="l">1</text><text x="9.018" y="1.67" class="l">failed</text><text x="15.03" y="1.67" class="f">,</text><text x="17.034" y="1.67" class="m">3</text><text x="19.038" y="1.67" class="m">passed</text><text x="25.05" y="1.67" class="f">,</text><text x="27.054" y="1.67" class="f">8</text><text x="29.058" y="1.67" class="f">total</text></symbol><symbol id="17"><text y="1.67" class="f">Time:</text><text x="7.014" y="1.67" class="f">4s</text></symbol><symbol id="18"><text y="1.67" class="f">Time:</text><text x="7.014" y="1.67" class="f">5s</text></symbol><symbol id="19"><text y="1.67" class="f">Time:</text><text x="7.014" y="1.67" class="f">6s</text></symbol><symbol id="20"><path class="j" d="M0 0h6v2.171H0z"/><text y="1.67" class="h">FAIL</text><text x="7.014" y="1.67" class="f">tests/</text><text x="13.026" y="1.67" class="i">view-profile.kt</text></symbol><symbol id="21"><path class="g" d="M0 0h6v2.171H0z"/><text y="1.67" class="h">RUNS</text><text x="7.014" y="1.67" class="f">tests/</text><text x="13.026" y="1.67" class="i">post.kt</text></symbol><symbol id="22"><text y="1.67" class="f">Tests:</text><text x="7.014" y="1.67" class="l">2</text><text x="9.018" y="1.67" class="l">failed</text><text x="15.03" y="1.67" class="f">,</text><text x="17.034" y="1.67" class="m">3</text><text x="19.038" y="1.67" class="m">passed</text><text x="25.05" y="1.67" class="f">,</text><text x="27.054" y="1.67" class="f">9</text><text x="29.058" y="1.67" class="f">total</text></symbol><symbol id="23"><text y="1.67" class="f">Time:</text><text x="7.014" y="1.67" class="f">7s</text></symbol><symbol id="24"><path class="k" d="M0 0h6v2.171H0z"/><text y="1.67" class="h">PASS</text><text x="7.014" y="1.67" class="f">tests/</text><text x="13.026" y="1.67" class="i">edit-profile.kt</text></symbol><symbol id="25"><path class="g" d="M0 0h6v2.171H0z"/><text y="1.67" class="h">RUNS</text><text x="7.014" y="1.67" class="f">tests/</text><text x="13.026" y="1.67" class="i">comments.kt</text></symbol><symbol id="26"><text y="1.67" class="f">Tests:</text><text x="7.014" y="1.67" class="l">2</text><text x="9.018" y="1.67" class="l">failed</text><text x="15.03" y="1.67" class="f">,</text><text x="17.034" y="1.67" class="m">4</text><text x="19.038" y="1.67" class="m">passed</text><text x="25.05" y="1.67" class="f">,</text><text x="27.054" y="1.67" class="f">10</text><text x="30.06" y="1.67" class="f">total</text></symbol><symbol id="27"><path class="k" d="M0 0h6v2.171H0z"/><text y="1.67" class="h">PASS</text><text x="7.014" y="1.67" class="f">tests/</text><text x="13.026" y="1.67" class="i">delete-profile.kt</text></symbol><symbol id="28"><text y="1.67" class="f">Tests:</text><text x="7.014" y="1.67" class="l">2</text><text x="9.018" y="1.67" class="l">failed</text><text x="15.03" y="1.67" class="f">,</text><text x="17.034" y="1.67" class="m">5</text><text x="19.038" y="1.67" class="m">passed</text><text x="25.05" y="1.67" class="f">,</text><text x="27.054" y="1.67" class="f">10</text><text x="30.06" y="1.67" class="f">total</text></symbol><symbol id="29"><path class="j" d="M0 0h6v2.171H0z"/><text y="1.67" class="h">FAIL</text><text x="7.014" y="1.67" class="f">tests/</text><text x="13.026" y="1.67" class="i">posts.kt</text></symbol><symbol id="30"><text y="1.67" class="f">Tests:</text><text x="7.014" y="1.67" class="l">3</text><text x="9.018" y="1.67" class="l">failed</text><text x="15.03" y="1.67" class="f">,</text><text x="17.034" y="1.67" class="m">5</text><text x="19.038" y="1.67" class="m">passed</text><text x="25.05" y="1.67" class="f">,</text><text x="27.054" y="1.67" class="f">10</text><text x="30.06" y="1.67" class="f">total</text></symbol><symbol id="31"><text y="1.67" class="f">Time:</text><text x="7.014" y="1.67" class="f">8s</text></symbol><symbol id="32"><text y="1.67" class="f">Time:</text><text x="7.014" y="1.67" class="f">9s</text></symbol><symbol id="33"><path class="k" d="M0 0h6v2.171H0z"/><text y="1.67" class="h">PASS</text><text x="7.014" y="1.67" class="f">tests/</text><text x="13.026" y="1.67" class="i">comments.kt</text></symbol><symbol id="34"><text y="1.67" class="f">Tests:</text><text x="7.014" y="1.67" class="l">3</text><text x="9.018" y="1.67" class="l">failed</text><text x="15.03" y="1.67" class="f">,</text><text x="17.034" y="1.67" class="m">6</text><text x="19.038" y="1.67" class="m">passed</text><text x="25.05" y="1.67" class="f">,</text><text x="27.054" y="1.67" class="f">10</text><text x="30.06" y="1.67" class="f">total</text></symbol><symbol id="35"><text y="1.67" class="f">Time:</text><text x="7.014" y="1.67" class="f">10s</text></symbol><symbol id="36"><path class="j" d="M0 0h6v2.171H0z"/><text y="1.67" class="h">FAIL</text><text x="7.014" y="1.67" class="f">tests/</text><text x="13.026" y="1.67" class="i">post.kt</text></symbol><symbol id="37"><text y="1.67" class="f">Tests:</text><text x="7.014" y="1.67" class="l">4</text><text x="9.018" y="1.67" class="l">failed</text><text x="15.03" y="1.67" class="f">,</text><text x="17.034" y="1.67" class="m">6</text><text x="19.038" y="1.67" class="m">passed</text><text x="25.05" y="1.67" class="f">,</text><text x="27.054" y="1.67" class="f">10</text><text x="30.06" y="1.67" class="f">total</text></symbol><symbol id="a"><path fill="transparent" d="M0 0h50v17H0z"/></symbol></defs><path class="a" d="M0 0h50v34.736H0z"/><g style="animation-duration:12.277087000000002s;animation-iteration-count:infinite;animation-name:o;animation-timing-function:steps(1,end)"><svg width="1850"><svg><use xlink:href="#a"/><text y="1.67" class="f">Tests:</text><text x="7.014" y="1.67" class="f">0</text><text x="9.018" y="1.67" class="f">total</text><use xlink:href="#1" y="2.171"/></svg><svg x="50"><use xlink:href="#a"/><use xlink:href="#2"/><use xlink:href="#3" y="2.171"/><use xlink:href="#4" y="4.342"/></svg><svg x="100"><use xlink:href="#a"/><use xlink:href="#2"/><use xlink:href="#3" y="2.171"/><use xlink:href="#4" y="4.342"/><use xlink:href="#5" y="6.513"/><use xlink:href="#6" y="10.855"/><use xlink:href="#1" y="13.026"/></svg><svg x="150"><use xlink:href="#a"/><use xlink:href="#2"/><use xlink:href="#3" y="2.171"/><use xlink:href="#4" y="4.342"/><use xlink:href="#5" y="6.513"/><use xlink:href="#6" y="10.855"/><text y="14.696" class="f">Time:</text><text x="7.014" y="14.696" class="f">1s</text></svg><svg x="200"><use xlink:href="#a"/><use xlink:href="#2"/><use xlink:href="#3" y="2.171"/><use xlink:href="#4" y="4.342"/><use xlink:href="#5" y="6.513"/><use xlink:href="#6" y="10.855"/><text y="14.696" class="f">Time:</text><text x="7.014" y="14.696" class="f">2s</text></svg><svg x="250"><use xlink:href="#a"/><use xlink:href="#2"/><use xlink:href="#3" y="2.171"/><use xlink:href="#4" y="4.342"/><use xlink:href="#5" y="6.513"/><use xlink:href="#6" y="10.855"/><use xlink:href="#7" y="13.026"/></svg><svg x="300"><use xlink:href="#a"/><use xlink:href="#8"/><use xlink:href="#3" y="4.342"/><use xlink:href="#4" y="6.513"/><use xlink:href="#5" y="8.684"/><use xlink:href="#9" y="10.855"/><text y="16.867" class="f">Tests:</text><text x="7.014" y="16.867" class="l">1</text><text x="9.018" y="16.867" class="l">failed</text><text x="15.03" y="16.867" class="f">,</text><text x="17.034" y="16.867" class="f">5</text><text x="19.038" y="16.867" class="f">total</text><use xlink:href="#7" y="17.368"/></svg><svg x="350"><use xlink:href="#a"/><use xlink:href="#8"/><use xlink:href="#10" y="2.171"/><use xlink:href="#3" y="6.513"/><use xlink:href="#4" y="8.684"/><use xlink:href="#9" y="10.855"/><use xlink:href="#11" y="13.026"/><text y="19.038" class="f">Tests:</text><text x="7.014" y="19.038" class="l">1</text><text x="9.018" y="19.038" class="l">failed</text><text x="15.03" y="19.038" class="f">,</text><text x="17.034" y="19.038" class="m">1</text><text x="19.038" y="19.038" class="m">passed</text><text x="25.05" y="19.038" class="f">,</text><text x="27.054" y="19.038" class="f">6</text><text x="29.058" y="19.038" class="f">total</text><use xlink:href="#7" y="19.539"/></svg><svg x="400"><use xlink:href="#a"/><use xlink:href="#8"/><use xlink:href="#12" y="2.171"/><use xlink:href="#10" y="4.342"/><use xlink:href="#3" y="8.684"/><use xlink:href="#9" y="10.855"/><use xlink:href="#11" y="13.026"/><use xlink:href="#13" y="15.197"/><text y="21.209" class="f">Tests:</text><text x="7.014" y="21.209" class="l">1</text><text x="9.018" y="21.209" class="l">failed</text><text x="15.03" y="21.209" class="f">,</text><text x="17.034" y="21.209" class="m">2</text><text x="19.038" y="21.209" class="m">passed</text><text x="25.05" y="21.209" class="f">,</text><text x="27.054" y="21.209" class="f">7</text><text x="29.058" y="21.209" class="f">total</text><use xlink:href="#7" y="21.71"/></svg><svg x="450"><use xlink:href="#a"/><use xlink:href="#8"/><use xlink:href="#14" y="2.171"/><use xlink:href="#12" y="4.342"/><use xlink:href="#10" y="6.513"/><use xlink:href="#9" y="10.855"/><use xlink:href="#11" y="13.026"/><use xlink:href="#13" y="15.197"/><use xlink:href="#15" y="17.368"/><use xlink:href="#16" y="21.71"/></svg><svg x="500"><use xlink:href="#a"/><use xlink:href="#8"/><use xlink:href="#14" y="2.171"/><use xlink:href="#12" y="4.342"/><use xlink:href="#10" y="6.513"/><use xlink:href="#9" y="10.855"/><use xlink:href="#11" y="13.026"/><use xlink:href="#13" y="15.197"/><use xlink:href="#15" y="17.368"/><use xlink:href="#16" y="21.71"/><use xlink:href="#7" y="23.881"/></svg><svg x="550"><use xlink:href="#a"/><use xlink:href="#8"/><use xlink:href="#14" y="2.171"/><use xlink:href="#12" y="4.342"/><use xlink:href="#10" y="6.513"/><use xlink:href="#9" y="10.855"/><use xlink:href="#11" y="13.026"/><use xlink:href="#13" y="15.197"/><use xlink:href="#15" y="17.368"/><use xlink:href="#16" y="21.71"/><use xlink:href="#7" y="23.881"/></svg><svg x="600"><use xlink:href="#a"/><use xlink:href="#8"/><use xlink:href="#14" y="2.171"/><use xlink:href="#12" y="4.342"/><use xlink:href="#10" y="6.513"/><use xlink:href="#9" y="10.855"/><use xlink:href="#11" y="13.026"/><use xlink:href="#13" y="15.197"/><use xlink:href="#15" y="17.368"/><use xlink:href="#16" y="21.71"/><use xlink:href="#17" y="23.881"/></svg><svg x="650"><use xlink:href="#a"/><use xlink:href="#8"/><use xlink:href="#14" y="2.171"/><use xlink:href="#12" y="4.342"/><use xlink:href="#10" y="6.513"/><use xlink:href="#9" y="10.855"/><use xlink:href="#11" y="13.026"/><use xlink:href="#13" y="15.197"/><use xlink:href="#15" y="17.368"/><use xlink:href="#16" y="21.71"/><use xlink:href="#17" y="23.881"/></svg><svg x="700"><use xlink:href="#a"/><use xlink:href="#8"/><use xlink:href="#14" y="2.171"/><use xlink:href="#12" y="4.342"/><use xlink:href="#10" y="6.513"/><use xlink:href="#9" y="10.855"/><use xlink:href="#11" y="13.026"/><use xlink:href="#13" y="15.197"/><use xlink:href="#15" y="17.368"/><use xlink:href="#16" y="21.71"/><use xlink:href="#18" y="23.881"/></svg><svg x="750"><use xlink:href="#a"/><use xlink:href="#8"/><use xlink:href="#14" y="2.171"/><use xlink:href="#12" y="4.342"/><use xlink:href="#10" y="6.513"/><use xlink:href="#9" y="10.855"/><use xlink:href="#11" y="13.026"/><use xlink:href="#13" y="15.197"/><use xlink:href="#15" y="17.368"/><use xlink:href="#16" y="21.71"/><use xlink:href="#18" y="23.881"/></svg><svg x="800"><use xlink:href="#a"/><use xlink:href="#8"/><use xlink:href="#14" y="2.171"/><use xlink:href="#12" y="4.342"/><use xlink:href="#10" y="6.513"/><use xlink:href="#9" y="10.855"/><use xlink:href="#11" y="13.026"/><use xlink:href="#13" y="15.197"/><use xlink:href="#15" y="17.368"/><use xlink:href="#16" y="21.71"/><use xlink:href="#19" y="23.881"/></svg><svg x="850"><use xlink:href="#a"/><use xlink:href="#8"/><use xlink:href="#14" y="2.171"/><use xlink:href="#12" y="4.342"/><use xlink:href="#10" y="6.513"/><use xlink:href="#20" y="8.684"/><use xlink:href="#11" y="13.026"/><use xlink:href="#13" y="15.197"/><use xlink:href="#15" y="17.368"/><use xlink:href="#21" y="19.539"/><use xlink:href="#22" y="23.881"/></svg><svg x="900"><use xlink:href="#a"/><use xlink:href="#8"/><use xlink:href="#14" y="2.171"/><use xlink:href="#12" y="4.342"/><use xlink:href="#10" y="6.513"/><use xlink:href="#20" y="8.684"/><use xlink:href="#11" y="13.026"/><use xlink:href="#13" y="15.197"/><use xlink:href="#15" y="17.368"/><use xlink:href="#21" y="19.539"/><use xlink:href="#22" y="23.881"/><use xlink:href="#19" y="26.052"/></svg><svg x="950"><use xlink:href="#a"/><use xlink:href="#8"/><use xlink:href="#14" y="2.171"/><use xlink:href="#12" y="4.342"/><use xlink:href="#10" y="6.513"/><use xlink:href="#20" y="8.684"/><use xlink:href="#11" y="13.026"/><use xlink:href="#13" y="15.197"/><use xlink:href="#15" y="17.368"/><use xlink:href="#21" y="19.539"/><use xlink:href="#22" y="23.881"/><use xlink:href="#19" y="26.052"/></svg><svg x="1000"><use xlink:href="#a"/><use xlink:href="#8"/><use xlink:href="#14" y="2.171"/><use xlink:href="#12" y="4.342"/><use xlink:href="#10" y="6.513"/><use xlink:href="#20" y="8.684"/><use xlink:href="#11" y="13.026"/><use xlink:href="#13" y="15.197"/><use xlink:href="#15" y="17.368"/><use xlink:href="#21" y="19.539"/><use xlink:href="#22" y="23.881"/><use xlink:href="#23" y="26.052"/></svg><svg x="1050"><use xlink:href="#a"/><use xlink:href="#8"/><use xlink:href="#14" y="2.171"/><use xlink:href="#12" y="4.342"/><use xlink:href="#10" y="6.513"/><use xlink:href="#20" y="8.684"/><use xlink:href="#24" y="10.855"/><use xlink:href="#13" y="15.197"/><use xlink:href="#15" y="17.368"/><use xlink:href="#21" y="19.539"/><use xlink:href="#22" y="23.881"/><use xlink:href="#23" y="26.052"/></svg><svg x="1100"><use xlink:href="#a"/><use xlink:href="#8"/><use xlink:href="#14" y="2.171"/><use xlink:href="#12" y="4.342"/><use xlink:href="#10" y="6.513"/><use xlink:href="#20" y="8.684"/><use xlink:href="#24" y="10.855"/><use xlink:href="#13" y="15.197"/><use xlink:href="#15" y="17.368"/><use xlink:href="#21" y="19.539"/><use xlink:href="#25" y="21.71"/><use xlink:href="#26" y="26.052"/><use xlink:href="#23" y="28.223"/></svg><svg x="1150"><use xlink:href="#a"/><use xlink:href="#8"/><use xlink:href="#14" y="2.171"/><use xlink:href="#12" y="4.342"/><use xlink:href="#10" y="6.513"/><use xlink:href="#20" y="8.684"/><use xlink:href="#24" y="10.855"/><use xlink:href="#27" y="13.026"/><use xlink:href="#15" y="17.368"/><use xlink:href="#21" y="19.539"/><use xlink:href="#25" y="21.71"/><use xlink:href="#26" y="26.052"/><use xlink:href="#23" y="28.223"/></svg><svg x="1200"><use xlink:href="#a"/><use xlink:href="#8"/><use xlink:href="#14" y="2.171"/><use xlink:href="#12" y="4.342"/><use xlink:href="#10" y="6.513"/><use xlink:href="#20" y="8.684"/><use xlink:href="#24" y="10.855"/><use xlink:href="#27" y="13.026"/><use xlink:href="#15" y="17.368"/><use xlink:href="#21" y="19.539"/><use xlink:href="#25" y="21.71"/><use xlink:href="#28" y="26.052"/><use xlink:href="#23" y="28.223"/></svg><svg x="1250"><use xlink:href="#a"/><use xlink:href="#8"/><use xlink:href="#14" y="2.171"/><use xlink:href="#12" y="4.342"/><use xlink:href="#10" y="6.513"/><use xlink:href="#20" y="8.684"/><use xlink:href="#24" y="10.855"/><use xlink:href="#27" y="13.026"/><use xlink:href="#29" y="15.197"/><use xlink:href="#21" y="19.539"/><use xlink:href="#25" y="21.71"/><use xlink:href="#28" y="26.052"/><use xlink:href="#23" y="28.223"/></svg><svg x="1300"><use xlink:href="#a"/><use xlink:href="#8"/><use xlink:href="#14" y="2.171"/><use xlink:href="#12" y="4.342"/><use xlink:href="#10" y="6.513"/><use xlink:href="#20" y="8.684"/><use xlink:href="#24" y="10.855"/><use xlink:href="#27" y="13.026"/><use xlink:href="#29" y="15.197"/><use xlink:href="#21" y="19.539"/><use xlink:href="#25" y="21.71"/><use xlink:href="#30" y="26.052"/><use xlink:href="#23" y="28.223"/></svg><svg x="1350"><use xlink:href="#a"/><use xlink:href="#8"/><use xlink:href="#14" y="2.171"/><use xlink:href="#12" y="4.342"/><use xlink:href="#10" y="6.513"/><use xlink:href="#20" y="8.684"/><use xlink:href="#24" y="10.855"/><use xlink:href="#27" y="13.026"/><use xlink:href="#29" y="15.197"/><use xlink:href="#21" y="19.539"/><use xlink:href="#25" y="21.71"/><use xlink:href="#30" y="26.052"/><use xlink:href="#23" y="28.223"/></svg><svg x="1400"><use xlink:href="#a"/><use xlink:href="#8"/><use xlink:href="#14" y="2.171"/><use xlink:href="#12" y="4.342"/><use xlink:href="#10" y="6.513"/><use xlink:href="#20" y="8.684"/><use xlink:href="#24" y="10.855"/><use xlink:href="#27" y="13.026"/><use xlink:href="#29" y="15.197"/><use xlink:href="#21" y="19.539"/><use xlink:href="#25" y="21.71"/><use xlink:href="#30" y="26.052"/><use xlink:href="#31" y="28.223"/></svg><svg x="1450"><use xlink:href="#a"/><use xlink:href="#8"/><use xlink:href="#14" y="2.171"/><use xlink:href="#12" y="4.342"/><use xlink:href="#10" y="6.513"/><use xlink:href="#20" y="8.684"/><use xlink:href="#24" y="10.855"/><use xlink:href="#27" y="13.026"/><use xlink:href="#29" y="15.197"/><use xlink:href="#21" y="19.539"/><use xlink:href="#25" y="21.71"/><use xlink:href="#30" y="26.052"/><use xlink:href="#31" y="28.223"/></svg><svg x="1500"><use xlink:href="#a"/><use xlink:href="#8"/><use xlink:href="#14" y="2.171"/><use xlink:href="#12" y="4.342"/><use xlink:href="#10" y="6.513"/><use xlink:href="#20" y="8.684"/><use xlink:href="#24" y="10.855"/><use xlink:href="#27" y="13.026"/><use xlink:href="#29" y="15.197"/><use xlink:href="#21" y="19.539"/><use xlink:href="#25" y="21.71"/><use xlink:href="#30" y="26.052"/><use xlink:href="#32" y="28.223"/></svg><svg x="1550"><use xlink:href="#a"/><use xlink:href="#8"/><use xlink:href="#14" y="2.171"/><use xlink:href="#12" y="4.342"/><use xlink:href="#10" y="6.513"/><use xlink:href="#20" y="8.684"/><use xlink:href="#24" y="10.855"/><use xlink:href="#27" y="13.026"/><use xlink:href="#29" y="15.197"/><use xlink:href="#33" y="17.368"/><use xlink:href="#21" y="21.71"/><use xlink:href="#30" y="26.052"/><use xlink:href="#32" y="28.223"/></svg><svg x="1600"><use xlink:href="#a"/><use xlink:href="#8"/><use xlink:href="#14" y="2.171"/><use xlink:href="#12" y="4.342"/><use xlink:href="#10" y="6.513"/><use xlink:href="#20" y="8.684"/><use xlink:href="#24" y="10.855"/><use xlink:href="#27" y="13.026"/><use xlink:href="#29" y="15.197"/><use xlink:href="#33" y="17.368"/><use xlink:href="#21" y="21.71"/><use xlink:href="#34" y="26.052"/><use xlink:href="#32" y="28.223"/></svg><svg x="1650"><use xlink:href="#a"/><use xlink:href="#8"/><use xlink:href="#14" y="2.171"/><use xlink:href="#12" y="4.342"/><use xlink:href="#10" y="6.513"/><use xlink:href="#20" y="8.684"/><use xlink:href="#24" y="10.855"/><use xlink:href="#27" y="13.026"/><use xlink:href="#29" y="15.197"/><use xlink:href="#33" y="17.368"/><use xlink:href="#21" y="21.71"/><use xlink:href="#34" y="26.052"/><use xlink:href="#35" y="28.223"/></svg><svg x="1700"><use xlink:href="#a"/><use xlink:href="#8"/><use xlink:href="#14" y="2.171"/><use xlink:href="#12" y="4.342"/><use xlink:href="#10" y="6.513"/><use xlink:href="#20" y="8.684"/><use xlink:href="#24" y="10.855"/><use xlink:href="#27" y="13.026"/><use xlink:href="#29" y="15.197"/><use xlink:href="#36" y="17.368"/><use xlink:href="#33" y="19.539"/><use xlink:href="#37" y="23.881"/><use xlink:href="#35" y="26.052"/><use xlink:href="#35" y="28.223"/></svg><svg x="1750"><use xlink:href="#a"/><use xlink:href="#8"/><use xlink:href="#14" y="2.171"/><use xlink:href="#12" y="4.342"/><use xlink:href="#10" y="6.513"/><use xlink:href="#20" y="8.684"/><use xlink:href="#24" y="10.855"/><use xlink:href="#27" y="13.026"/><use xlink:href="#29" y="15.197"/><use xlink:href="#36" y="17.368"/><use xlink:href="#33" y="19.539"/><use xlink:href="#37" y="23.881"/><use xlink:href="#35" y="26.052"/></svg><svg x="1800"><use xlink:href="#a"/><use xlink:href="#8"/><use xlink:href="#14" y="2.171"/><use xlink:href="#12" y="4.342"/><use xlink:href="#10" y="6.513"/><use xlink:href="#20" y="8.684"/><use xlink:href="#24" y="10.855"/><use xlink:href="#27" y="13.026"/><use xlink:href="#29" y="15.197"/><use xlink:href="#36" y="17.368"/><use xlink:href="#33" y="19.539"/><use xlink:href="#37" y="23.881"/><use xlink:href="#35" y="26.052"/></svg></svg></g></g></svg></svg>