<svg xmlns="http://www.w3.org/2000/svg" xmlns:xlink="http://www.w3.org/1999/xlink" width="540" height="407.36"><rect width="540" height="407.36" rx="5" ry="5" class="a"/><svg y="0%" x="0%"><circle cx="20" cy="20" r="6" fill="#ff5f58"/><circle cx="40" cy="20" r="6" fill="#ffbd2e"/><circle cx="60" cy="20" r="6" fill="#18c132"/></svg><svg height="347.36" viewBox="0 0 50 34.736" width="500" x="15" xmlns="http://www.w3.org/2000/svg" xmlns:xlink="http://www.w3.org/1999/xlink" y="50"><style>@keyframes h{0%{transform:translateX(0)}3.8%{transform:translateX(-50px)}7.5%{transform:translateX(-100px)}11.3%{transform:translateX(-150px)}14.3%{transform:translateX(-200px)}18.2%{transform:translateX(-250px)}21.9%{transform:translateX(-300px)}25.7%{transform:translateX(-350px)}28.6%{transform:translateX(-400px)}32.3%{transform:translateX(-450px)}36.1%{transform:translateX(-500px)}39.8%{transform:translateX(-550px)}43.5%{transform:translateX(-600px)}46.5%{transform:translateX(-650px)}50.2%{transform:translateX(-700px)}54%{transform:translateX(-750px)}57.7%{transform:translateX(-800px)}61.5%{transform:translateX(-850px)}64.5%{transform:translateX(-900px)}68.2%{transform:translateX(-950px)}to{transform:translateX(-1000px)}}.a{fill:#282d35}.f{fill:#b9c0cb;white-space:pre}</style><g font-family="Monaco,Consolas,Menlo,'Bitstream Vera Sans Mono','Powerline Symbols',monospace" font-size="1.67"><defs><symbol id="1"><text y="1.67" class="f">The</text><text x="4.008" y="1.67" class="f">count</text><text x="10.02" y="1.67" class="f">is:</text><text x="14.028" y="1.67" class="f">19</text></symbol><symbol id="a"><path fill="transparent" d="M0 0h50v17H0z"/></symbol></defs><path class="a" d="M0 0h50v34.736H0z"/><g style="animation-duration:7.08474s;animation-iteration-count:infinite;animation-name:h;animation-timing-function:steps(1,end)"><svg width="1050"><svg><use xlink:href="#a"/><text y="1.67" class="f">The</text><text x="4.008" y="1.67" class="f">count</text><text x="10.02" y="1.67" class="f">is:</text><text x="14.028" y="1.67" class="f">0</text></svg><svg x="50"><use xlink:href="#a"/><text y="1.67" class="f">The</text><text x="4.008" y="1.67" class="f">count</text><text x="10.02" y="1.67" class="f">is:</text><text x="14.028" y="1.67" class="f">1</text></svg><svg x="100"><use xlink:href="#a"/><text y="1.67" class="f">The</text><text x="4.008" y="1.67" class="f">count</text><text x="10.02" y="1.67" class="f">is:</text><text x="14.028" y="1.67" class="f">2</text></svg><svg x="150"><use xlink:href="#a"/><text y="1.67" class="f">The</text><text x="4.008" y="1.67" class="f">count</text><text x="10.02" y="1.67" class="f">is:</text><text x="14.028" y="1.67" class="f">3</text></svg><svg x="200"><use xlink:href="#a"/><text y="1.67" class="f">The</text><text x="4.008" y="1.67" class="f">count</text><text x="10.02" y="1.67" class="f">is:</text><text x="14.028" y="1.67" class="f">4</text></svg><svg x="250"><use xlink:href="#a"/><text y="1.67" class="f">The</text><text x="4.008" y="1.67" class="f">count</text><text x="10.02" y="1.67" class="f">is:</text><text x="14.028" y="1.67" class="f">5</text></svg><svg x="300"><use xlink:href="#a"/><text y="1.67" class="f">The</text><text x="4.008" y="1.67" class="f">count</text><text x="10.02" y="1.67" class="f">is:</text><text x="14.028" y="1.67" class="f">6</text></svg><svg x="350"><use xlink:href="#a"/><text y="1.67" class="f">The</text><text x="4.008" y="1.67" class="f">count</text><text x="10.02" y="1.67" class="f">is:</text><text x="14.028" y="1.67" class="f">7</text></svg><svg x="400"><use xlink:href="#a"/><text y="1.67" class="f">The</text><text x="4.008" y="1.67" class="f">count</text><text x="10.02" y="1.67" class="f">is:</text><text x="14.028" y="1.67" class="f">8</text></svg><svg x="450"><use xlink:href="#a"/><text y="1.67" class="f">The</text><text x="4.008" y="1.67" class="f">count</text><text x="10.02" y="1.67" class="f">is:</text><text x="14.028" y="1.67" class="f">9</text></svg><svg x="500"><use xlink:href="#a"/><text y="1.67" class="f">The</text><text x="4.008" y="1.67" class="f">count</text><text x="10.02" y="1.67" class="f">is:</text><text x="14.028" y="1.67" class="f">10</text></svg><svg x="550"><use xlink:href="#a"/><text y="1.67" class="f">The</text><text x="4.008" y="1.67" class="f">count</text><text x="10.02" y="1.67" class="f">is:</text><text x="14.028" y="1.67" class="f">11</text></svg><svg x="600"><use xlink:href="#a"/><text y="1.67" class="f">The</text><text x="4.008" y="1.67" class="f">count</text><text x="10.02" y="1.67" class="f">is:</text><text x="14.028" y="1.67" class="f">12</text></svg><svg x="650"><use xlink:href="#a"/><text y="1.67" class="f">The</text><text x="4.008" y="1.67" class="f">count</text><text x="10.02" y="1.67" class="f">is:</text><text x="14.028" y="1.67" class="f">13</text></svg><svg x="700"><use xlink:href="#a"/><text y="1.67" class="f">The</text><text x="4.008" y="1.67" class="f">count</text><text x="10.02" y="1.67" class="f">is:</text><text x="14.028" y="1.67" class="f">14</text></svg><svg x="750"><use xlink:href="#a"/><text y="1.67" class="f">The</text><text x="4.008" y="1.67" class="f">count</text><text x="10.02" y="1.67" class="f">is:</text><text x="14.028" y="1.67" class="f">15</text></svg><svg x="800"><use xlink:href="#a"/><text y="1.67" class="f">The</text><text x="4.008" y="1.67" class="f">count</text><text x="10.02" y="1.67" class="f">is:</text><text x="14.028" y="1.67" class="f">16</text></svg><svg x="850"><use xlink:href="#a"/><text y="1.67" class="f">The</text><text x="4.008" y="1.67" class="f">count</text><text x="10.02" y="1.67" class="f">is:</text><text x="14.028" y="1.67" class="f">17</text></svg><svg x="900"><use xlink:href="#a"/><text y="1.67" class="f">The</text><text x="4.008" y="1.67" class="f">count</text><text x="10.02" y="1.67" class="f">is:</text><text x="14.028" y="1.67" class="f">18</text></svg><svg x="950"><use xlink:href="#a"/><use xlink:href="#1"/></svg><svg x="1000"><use xlink:href="#a"/><use xlink:href="#1"/></svg></svg></g></g></svg></svg>