<svg xmlns="http://www.w3.org/2000/svg" xmlns:xlink="http://www.w3.org/1999/xlink" width="540" height="407.36"><rect width="540" height="407.36" rx="5" ry="5" class="a"/><svg y="0%" x="0%"><circle cx="20" cy="20" r="6" fill="#ff5f58"/><circle cx="40" cy="20" r="6" fill="#ffbd2e"/><circle cx="60" cy="20" r="6" fill="#18c132"/></svg><svg height="347.36" viewBox="0 0 50 34.736" width="500" x="15" xmlns="http://www.w3.org/2000/svg" xmlns:xlink="http://www.w3.org/1999/xlink" y="50"><style>@keyframes h{0%{transform:translateX(-50px)}3.7%{transform:translateX(-250px)}7.5%{transform:translateX(-450px)}11.2%{transform:translateX(-550px)}14.9%{transform:translateX(-750px)}17.8%{transform:translateX(-950px)}21.5%{transform:translateX(-1100px)}25.2%{transform:translateX(-1250px)}28.9%{transform:translateX(-1400px)}32.7%{transform:translateX(-1500px)}36.5%{transform:translateX(-1600px)}39.4%{transform:translateX(-1700px)}39.5%{transform:translateX(-1800px)}43.2%{transform:translateX(-1900px)}46.9%{transform:translateX(-2050px)}50.6%{transform:translateX(-2150px)}53.7%{transform:translateX(-2250px)}57.5%{transform:translateX(-2400px)}61.1%{transform:translateX(-2500px)}64.8%{transform:translateX(-2600px)}68.5%{transform:translateX(-2700px)}to{transform:translateX(-2750px)}}.a{fill:#282d35}.f{fill:#b9c0cb;white-space:pre}</style><g font-family="Monaco,Consolas,Menlo,'Bitstream Vera Sans Mono','Powerline Symbols',monospace" font-size="1.67"><defs><symbol id="1"><text y="1.67" class="f">The</text><text x="4.008" y="1.67" class="f">count</text><text x="10.02" y="1.67" class="f">is:</text><text x="14.028" y="1.67" class="f">0</text></symbol><symbol id="2"><text y="1.67" class="f">The</text><text x="4.008" y="1.67" class="f">c</text></symbol><symbol id="3"><text y="1.67" class="f">The</text><text x="4.008" y="1.67" class="f">cou</text></symbol><symbol id="4"><text y="1.67" class="f">The</text><text x="4.008" y="1.67" class="f">count</text><text x="10.02" y="1.67" class="f">is:</text><text x="14.028" y="1.67" class="f">1</text></symbol><symbol id="5"><text y="1.67" class="f">The</text><text x="4.008" y="1.67" class="f">count</text><text x="10.02" y="1.67" class="f">is:</text><text x="14.028" y="1.67" class="f">2</text></symbol><symbol id="6"><text y="1.67" class="f">Th</text></symbol><symbol id="7"><text y="1.67" class="f">The</text><text x="4.008" y="1.67" class="f">count</text><text x="10.02" y="1.67" class="f">is:</text><text x="14.028" y="1.67" class="f">3</text></symbol><symbol id="8"><text y="1.67" class="f">The</text><text x="4.008" y="1.67" class="f">count</text><text x="10.02" y="1.67" class="f">is:</text><text x="14.028" y="1.67" class="f">4</text></symbol><symbol id="9"><text y="1.67" class="f">The</text><text x="4.008" y="1.67" class="f">count</text></symbol><symbol id="10"><text y="1.67" class="f">The</text><text x="4.008" y="1.67" class="f">count</text><text x="10.02" y="1.67" class="f">is:</text><text x="14.028" y="1.67" class="f">5</text></symbol><symbol id="11"><text y="1.67" class="f">The</text><text x="4.008" y="1.67" class="f">count</text><text x="10.02" y="1.67" class="f">is:</text><text x="14.028" y="1.67" class="f">6</text></symbol><symbol id="12"><text y="1.67" class="f">The</text></symbol><symbol id="13"><text y="1.67" class="f">The</text><text x="4.008" y="1.67" class="f">count</text><text x="10.02" y="1.67" class="f">is:</text><text x="14.028" y="1.67" class="f">13</text></symbol><symbol id="14"><text y="1.67" class="f">The</text><text x="4.008" y="1.67" class="f">count</text><text x="10.02" y="1.67" class="f">is:</text><text x="14.028" y="1.67" class="f">15</text></symbol><symbol id="15"><text y="1.67" class="f">The</text><text x="4.008" y="1.67" class="f">count</text><text x="10.02" y="1.67" class="f">is:</text><text x="14.028" y="1.67" class="f">19</text></symbol><symbol id="a"><path fill="transparent" d="M0 0h50v17H0z"/></symbol></defs><path class="a" d="M0 0h50v34.736H0z"/><g style="animation-duration:7.088568s;animation-iteration-count:infinite;animation-name:h;animation-timing-function:steps(1,end)"><svg width="2800"><svg><use xlink:href="#a"/><use xlink:href="#1"/></svg><svg x="50"><use xlink:href="#a"/><use xlink:href="#1"/></svg><svg x="100"><use xlink:href="#a"/><use xlink:href="#1"/></svg><svg x="150"><use xlink:href="#a"/><use xlink:href="#2"/></svg><svg x="200"><use xlink:href="#a"/><use xlink:href="#3"/></svg><svg x="250"><use xlink:href="#a"/><use xlink:href="#4"/></svg><svg x="300"><use xlink:href="#a"/><use xlink:href="#4"/></svg><svg x="350"><use xlink:href="#a"/><use xlink:href="#4"/></svg><svg x="400"><use xlink:href="#a"/><use xlink:href="#5"/></svg><svg x="450"><use xlink:href="#a"/><use xlink:href="#5"/></svg><svg x="500"><use xlink:href="#a"/><use xlink:href="#6"/></svg><svg x="550"><use xlink:href="#a"/><use xlink:href="#7"/></svg><svg x="600"><use xlink:href="#a"/><use xlink:href="#7"/></svg><svg x="650"><use xlink:href="#a"/><use xlink:href="#2"/></svg><svg x="700"><use xlink:href="#a"/><use xlink:href="#3"/></svg><svg x="750"><use xlink:href="#a"/><use xlink:href="#8"/></svg><svg x="800"><use xlink:href="#a"/><use xlink:href="#8"/></svg><svg x="850"><use xlink:href="#a"/><text y="1.67" class="f">The</text><text x="4.008" y="1.67" class="f">co</text></svg><svg x="900"><use xlink:href="#a"/><use xlink:href="#9"/></svg><svg x="950"><use xlink:href="#a"/><use xlink:href="#10"/></svg><svg x="1000"><use xlink:href="#a"/><use xlink:href="#10"/></svg><svg x="1050"><use xlink:href="#a"/><use xlink:href="#3"/></svg><svg x="1100"><use xlink:href="#a"/><use xlink:href="#11"/></svg><svg x="1150"><use xlink:href="#a"/><use xlink:href="#11"/></svg><svg x="1200"><use xlink:href="#a"/><text y="1.67" class="f">The</text><text x="4.008" y="1.67" class="f">count</text><text x="10.02" y="1.67" class="f">is:</text></svg><svg x="1250"><use xlink:href="#a"/><text y="1.67" class="f">The</text><text x="4.008" y="1.67" class="f">count</text><text x="10.02" y="1.67" class="f">is:</text><text x="14.028" y="1.67" class="f">7</text></svg><svg x="1300"><use xlink:href="#a"/></svg><svg x="1350"><use xlink:href="#a"/><use xlink:href="#3"/></svg><svg x="1400"><use xlink:href="#a"/><text y="1.67" class="f">The</text><text x="4.008" y="1.67" class="f">count</text><text x="10.02" y="1.67" class="f">is:</text><text x="14.028" y="1.67" class="f">8</text></svg><svg x="1450"><use xlink:href="#a"/><text y="1.67" class="f">T</text></svg><svg x="1500"><use xlink:href="#a"/><text y="1.67" class="f">The</text><text x="4.008" y="1.67" class="f">count</text><text x="10.02" y="1.67" class="f">is:</text><text x="14.028" y="1.67" class="f">9</text></svg><svg x="1550"><use xlink:href="#a"/></svg><svg x="1600"><use xlink:href="#a"/><text y="1.67" class="f">The</text><text x="4.008" y="1.67" class="f">count</text><text x="10.02" y="1.67" class="f">is:</text><text x="14.028" y="1.67" class="f">10</text></svg><svg x="1650"><use xlink:href="#a"/><use xlink:href="#12"/></svg><svg x="1700"><use xlink:href="#a"/><use xlink:href="#9"/></svg><svg x="1750"><use xlink:href="#a"/><text y="1.67" class="f">The</text><text x="4.008" y="1.67" class="f">count</text><text x="10.02" y="1.67" class="f">is</text></svg><svg x="1800"><use xlink:href="#a"/><text y="1.67" class="f">The</text><text x="4.008" y="1.67" class="f">count</text><text x="10.02" y="1.67" class="f">is:</text><text x="14.028" y="1.67" class="f">11</text></svg><svg x="1850"><use xlink:href="#a"/><use xlink:href="#4"/></svg><svg x="1900"><use xlink:href="#a"/><text y="1.67" class="f">The</text><text x="4.008" y="1.67" class="f">count</text><text x="10.02" y="1.67" class="f">is:</text><text x="14.028" y="1.67" class="f">12</text></svg><svg x="1950"><use xlink:href="#a"/><use xlink:href="#12"/></svg><svg x="2000"><use xlink:href="#a"/><use xlink:href="#13"/></svg><svg x="2050"><use xlink:href="#a"/><use xlink:href="#13"/></svg><svg x="2100"><use xlink:href="#a"/><use xlink:href="#2"/></svg><svg x="2150"><use xlink:href="#a"/><text y="1.67" class="f">The</text><text x="4.008" y="1.67" class="f">count</text><text x="10.02" y="1.67" class="f">is:</text><text x="14.028" y="1.67" class="f">14</text></svg><svg x="2200"><use xlink:href="#a"/><use xlink:href="#12"/></svg><svg x="2250"><use xlink:href="#a"/><use xlink:href="#14"/></svg><svg x="2300"><use xlink:href="#a"/><use xlink:href="#14"/></svg><svg x="2350"><use xlink:href="#a"/><text y="1.67" class="f">The</text><text x="4.008" y="1.67" class="f">coun</text></svg><svg x="2400"><use xlink:href="#a"/><text y="1.67" class="f">The</text><text x="4.008" y="1.67" class="f">count</text><text x="10.02" y="1.67" class="f">is:</text><text x="14.028" y="1.67" class="f">16</text></svg><svg x="2450"><use xlink:href="#a"/><use xlink:href="#6"/></svg><svg x="2500"><use xlink:href="#a"/><text y="1.67" class="f">The</text><text x="4.008" y="1.67" class="f">count</text><text x="10.02" y="1.67" class="f">is:</text><text x="14.028" y="1.67" class="f">17</text></svg><svg x="2550"><use xlink:href="#a"/><text y="1.67" class="f">The</text><text x="4.008" y="1.67" class="f">count</text><text x="10.02" y="1.67" class="f">i</text></svg><svg x="2600"><use xlink:href="#a"/><text y="1.67" class="f">The</text><text x="4.008" y="1.67" class="f">count</text><text x="10.02" y="1.67" class="f">is:</text><text x="14.028" y="1.67" class="f">18</text></svg><svg x="2650"><use xlink:href="#a"/><use xlink:href="#3"/></svg><svg x="2700"><use xlink:href="#a"/><use xlink:href="#15"/></svg><svg x="2750"><use xlink:href="#a"/><use xlink:href="#15"/></svg></svg></g></g></svg></svg>