<svg xmlns="http://www.w3.org/2000/svg" xmlns:xlink="http://www.w3.org/1999/xlink" width="640" height="407.36"><rect width="640" height="407.36" rx="5" ry="5" class="a"/><svg y="0%" x="0%"><circle cx="20" cy="20" r="6" fill="#ff5f58"/><circle cx="40" cy="20" r="6" fill="#ffbd2e"/><circle cx="60" cy="20" r="6" fill="#18c132"/></svg><svg height="347.36" viewBox="0 0 60 34.736" width="600" x="15" xmlns="http://www.w3.org/2000/svg" xmlns:xlink="http://www.w3.org/1999/xlink" y="50"><style>@keyframes q{0%{transform:translateX(0)}.5%{transform:translateX(-60px)}4.9%{transform:translateX(-120px)}8.4%{transform:translateX(-180px)}8.9%{transform:translateX(-240px)}13.3%{transform:translateX(-300px)}16.8%{transform:translateX(-360px)}17.2%{transform:translateX(-420px)}21.1%{transform:translateX(-480px)}25.1%{transform:translateX(-540px)}25.5%{transform:translateX(-600px)}27.7%{transform:translateX(-660px)}29.6%{transform:translateX(-720px)}30%{transform:translateX(-780px)}32.2%{transform:translateX(-840px)}33.1%{transform:translateX(-900px)}33.6%{transform:translateX(-960px)}37.9%{transform:translateX(-1020px)}41.5%{transform:translateX(-1080px)}41.9%{transform:translateX(-1140px)}46.3%{transform:translateX(-1200px)}49.3%{transform:translateX(-1260px)}50.2%{transform:translateX(-1320px)}54.1%{transform:translateX(-1380px)}56.8%{transform:translateX(-1440px)}57.8%{transform:translateX(-1500px)}58.2%{transform:translateX(-1560px)}62.6%{transform:translateX(-1620px)}66.1%{transform:translateX(-1680px)}66.6%{transform:translateX(-1740px)}70.9%{transform:translateX(-1800px)}74.4%{transform:translateX(-1860px)}74.8%{transform:translateX(-1920px)}78.9%{transform:translateX(-1980px)}82.3%{transform:translateX(-2040px)}83.2%{transform:translateX(-2100px)}to{transform:translateX(-2160px)}}.a{fill:#282d35}.f{fill:#b9c0cb;white-space:pre}.g{fill:#dbab79}.h,.i,.j{white-space:pre}.i{fill:#b9c0cb;font-weight:700}.j{fill:#dbab79}.k{fill:#6f7783}.l{fill:#e88388}.m{fill:#a8cc8c}.n,.o{fill:#e88388;white-space:pre}.o{fill:#a8cc8c}</style><g font-family="Monaco,Consolas,Menlo,'Bitstream Vera Sans Mono','Powerline Symbols',monospace" font-size="1.67"><defs><symbol id="1"><text y="1.67" class="f">Time:</text><text x="7.014" y="1.67" class="f">0s</text></symbol><symbol id="2"><path class="g" d="M0 0h6v2.171H0z"/><text y="1.67" class="h">RUNS</text><text x="7.014" y="1.67" class="f">tests/</text><text x="13.026" y="1.67" class="i">login.kt</text></symbol><symbol id="3"><path class="g" d="M0 0h6v2.171H0z"/><text y="1.67" class="h">RUNS</text><text x="7.014" y="1.67" class="f">tests/</text><text x="13.026" y="1.67" class="i">signup.kt</text></symbol><symbol id="4"><path class="g" d="M0 0h6v2.171H0z"/><text y="1.67" class="h">RUNS</text><text x="7.014" y="1.67" class="f">tests/</text><text x="13.026" y="1.67" class="i">forgot-password.kt</text></symbol><symbol id="5"><path class="g" d="M0 0h6v2.171H0z"/><text y="1.67" class="h">RUNS</text><text x="7.014" y="1.67" class="f">tests/</text><text x="13.026" y="1.67" class="i">reset-password.kt</text></symbol><symbol id="6"><text y="1.67" class="f">Tests:</text><text x="7.014" y="1.67" class="j">4</text><text x="9.018" y="1.67" class="j">running</text><text x="16.032" y="1.67" class="f">,</text><text x="18.036" y="1.67" class="f">10</text><text x="21.042" y="1.67" class="f">total</text></symbol><symbol id="7"><path class="g" d="M0 0h16v2.171H0z"/><text y="1.67" class="f"></text><path class="k" d="M16.032 0h24v2.171h-24z"/><text x="16.032" y="1.67" class="f"></text></symbol><symbol id="8"><path class="k" d="M0 0h40v2.171H0z"/><text y="1.67" class="f"></text></symbol><symbol id="9"><text y="1.67" class="f">Time:</text><text x="7.014" y="1.67" class="f">1s</text></symbol><symbol id="10"><text y="1.67" class="f">Time:</text><text x="7.014" y="1.67" class="f">2s</text></symbol><symbol id="11"><text y="1.67" class="f">Time:</text><text x="7.014" y="1.67" class="f">3s</text></symbol><symbol id="12"><path class="l" d="M0 0h6v2.171H0z"/><text y="1.67" class="h">FAIL</text><text x="7.014" y="1.67" class="f">tests/</text><text x="13.026" y="1.67" class="i">login.kt</text></symbol><symbol id="13"><text x="1.002" y="1.67" class="f">‣</text><text x="3.006" y="1.67" class="f">Failure</text><text x="11.022" y="1.67" class="f">on</text><text x="14.028" y="1.67" class="f">line</text><text x="19.038" y="1.67" class="f">36</text><text x="22.044" y="1.67" class="f">in</text><text x="25.05" y="1.67" class="f">tests/login.kt</text></symbol><symbol id="14"><text x="1.002" y="1.67" class="f">‣</text><text x="3.006" y="1.67" class="f">Failure</text><text x="11.022" y="1.67" class="f">on</text><text x="14.028" y="1.67" class="f">line</text><text x="19.038" y="1.67" class="f">38</text><text x="22.044" y="1.67" class="f">in</text><text x="25.05" y="1.67" class="f">tests/login.kt</text></symbol><symbol id="15"><path class="g" d="M0 0h6v2.171H0z"/><text y="1.67" class="h">RUNS</text><text x="7.014" y="1.67" class="f">tests/</text><text x="13.026" y="1.67" class="i">view-profile.kt</text></symbol><symbol id="16"><path class="m" d="M0 0h6v2.171H0z"/><text y="1.67" class="h">PASS</text><text x="7.014" y="1.67" class="f">tests/</text><text x="13.026" y="1.67" class="i">reset-password.kt</text></symbol><symbol id="17"><path class="g" d="M0 0h6v2.171H0z"/><text y="1.67" class="h">RUNS</text><text x="7.014" y="1.67" class="f">tests/</text><text x="13.026" y="1.67" class="i">edit-profile.kt</text></symbol><symbol id="18"><path class="m" d="M0 0h6v2.171H0z"/><text y="1.67" class="h">PASS</text><text x="7.014" y="1.67" class="f">tests/</text><text x="13.026" y="1.67" class="i">forgot-password.kt</text></symbol><symbol id="19"><path class="g" d="M0 0h6v2.171H0z"/><text y="1.67" class="h">RUNS</text><text x="7.014" y="1.67" class="f">tests/</text><text x="13.026" y="1.67" class="i">delete-profile.kt</text></symbol><symbol id="20"><path class="l" d="M0 0h6v2.171H0z"/><text y="1.67" class="h">FAIL</text><text x="7.014" y="1.67" class="f">tests/</text><text x="13.026" y="1.67" class="i">signup.kt</text></symbol><symbol id="21"><text x="1.002" y="1.67" class="f">‣</text><text x="3.006" y="1.67" class="f">Failure</text><text x="11.022" y="1.67" class="f">on</text><text x="14.028" y="1.67" class="f">line</text><text x="19.038" y="1.67" class="f">40</text><text x="22.044" y="1.67" class="f">in</text><text x="25.05" y="1.67" class="f">tests/signup.kt</text></symbol><symbol id="22"><path class="g" d="M0 0h6v2.171H0z"/><text y="1.67" class="h">RUNS</text><text x="7.014" y="1.67" class="f">tests/</text><text x="13.026" y="1.67" class="i">posts.kt</text></symbol><symbol id="23"><text y="1.67" class="f">Tests:</text><text x="7.014" y="1.67" class="n">2</text><text x="9.018" y="1.67" class="n">failed</text><text x="15.03" y="1.67" class="f">,</text><text x="17.034" y="1.67" class="o">2</text><text x="19.038" y="1.67" class="o">passed</text><text x="25.05" y="1.67" class="f">,</text><text x="27.054" y="1.67" class="j">4</text><text x="29.058" y="1.67" class="j">running</text><text x="36.072" y="1.67" class="f">,</text><text x="38.076" y="1.67" class="f">10</text><text x="41.082" y="1.67" class="f">total</text></symbol><symbol id="24"><path class="l" d="M0 0h8v2.171H0z"/><text y="1.67" class="f"></text><path class="m" d="M8.016 0h8v2.171h-8z"/><text x="8.016" y="1.67" class="f"></text><path class="k" d="M16.032 0h24v2.171h-24z"/><text x="16.032" y="1.67" class="f"></text></symbol><symbol id="25"><text y="1.67" class="f">Time:</text><text x="7.014" y="1.67" class="f">4s</text></symbol><symbol id="26"><path class="l" d="M0 0h8v2.171H0z"/><text y="1.67" class="f"></text><path class="m" d="M8.016 0h8v2.171h-8z"/><text x="8.016" y="1.67" class="f"></text><path class="g" d="M16.032 0h16v2.171h-16z"/><text x="16.032" y="1.67" class="f"></text><path class="k" d="M32.064 0h8v2.171h-8z"/><text x="32.064" y="1.67" class="f"></text></symbol><symbol id="27"><text y="1.67" class="f">Time:</text><text x="7.014" y="1.67" class="f">5s</text></symbol><symbol id="28"><text y="1.67" class="f">Time:</text><text x="7.014" y="1.67" class="f">6s</text></symbol><symbol id="29"><path class="m" d="M0 0h6v2.171H0z"/><text y="1.67" class="h">PASS</text><text x="7.014" y="1.67" class="f">tests/</text><text x="13.026" y="1.67" class="i">view-profile.kt</text></symbol><symbol id="30"><path class="g" d="M0 0h6v2.171H0z"/><text y="1.67" class="h">RUNS</text><text x="7.014" y="1.67" class="f">tests/</text><text x="13.026" y="1.67" class="i">post.kt</text></symbol><symbol id="31"><path class="m" d="M0 0h6v2.171H0z"/><text y="1.67" class="h">PASS</text><text x="7.014" y="1.67" class="f">tests/</text><text x="13.026" y="1.67" class="i">edit-profile.kt</text></symbol><symbol id="32"><path class="g" d="M0 0h6v2.171H0z"/><text y="1.67" class="h">RUNS</text><text x="7.014" y="1.67" class="f">tests/</text><text x="13.026" y="1.67" class="i">comments.kt</text></symbol><symbol id="33"><text y="1.67" class="f">Time:</text><text x="7.014" y="1.67" class="f">7s</text></symbol><symbol id="34"><path class="m" d="M0 0h6v2.171H0z"/><text y="1.67" class="h">PASS</text><text x="7.014" y="1.67" class="f">tests/</text><text x="13.026" y="1.67" class="i">posts.kt</text></symbol><symbol id="35"><path class="m" d="M0 0h6v2.171H0z"/><text y="1.67" class="h">PASS</text><text x="7.014" y="1.67" class="f">tests/</text><text x="13.026" y="1.67" class="i">delete-profile.kt</text></symbol><symbol id="36"><text y="1.67" class="f">Tests:</text><text x="7.014" y="1.67" class="n">2</text><text x="9.018" y="1.67" class="n">failed</text><text x="15.03" y="1.67" class="f">,</text><text x="17.034" y="1.67" class="o">6</text><text x="19.038" y="1.67" class="o">passed</text><text x="25.05" y="1.67" class="f">,</text><text x="27.054" y="1.67" class="j">2</text><text x="29.058" y="1.67" class="j">running</text><text x="36.072" y="1.67" class="f">,</text><text x="38.076" y="1.67" class="f">10</text><text x="41.082" y="1.67" class="f">total</text></symbol><symbol id="37"><path class="l" d="M0 0h8v2.171H0z"/><text y="1.67" class="f"></text><path class="m" d="M8.016 0h24v2.171h-24z"/><text x="8.016" y="1.67" class="f"></text><path class="k" d="M32.064 0h8v2.171h-8z"/><text x="32.064" y="1.67" class="f"></text></symbol><symbol id="38"><text y="1.67" class="f">Time:</text><text x="7.014" y="1.67" class="f">8s</text></symbol><symbol id="39"><path class="l" d="M0 0h8v2.171H0z"/><text y="1.67" class="f"></text><path class="m" d="M8.016 0h24v2.171h-24z"/><text x="8.016" y="1.67" class="f"></text><path class="g" d="M32.064 0h8v2.171h-8z"/><text x="32.064" y="1.67" class="f"></text></symbol><symbol id="40"><text y="1.67" class="f">Time:</text><text x="7.014" y="1.67" class="f">9s</text></symbol><symbol id="41"><text y="1.67" class="f">Time:</text><text x="7.014" y="1.67" class="f">10s</text></symbol><symbol id="42"><path class="l" d="M0 0h6v2.171H0z"/><text y="1.67" class="h">FAIL</text><text x="7.014" y="1.67" class="f">tests/</text><text x="13.026" y="1.67" class="i">comments.kt</text></symbol><symbol id="43"><text x="1.002" y="1.67" class="f">‣</text><text x="3.006" y="1.67" class="f">Failure</text><text x="11.022" y="1.67" class="f">on</text><text x="14.028" y="1.67" class="f">line</text><text x="19.038" y="1.67" class="f">26</text><text x="22.044" y="1.67" class="f">in</text><text x="25.05" y="1.67" class="f">tests/comments.kt</text></symbol><symbol id="44"><text x="1.002" y="1.67" class="f">‣</text><text x="3.006" y="1.67" class="f">Failure</text><text x="11.022" y="1.67" class="f">on</text><text x="14.028" y="1.67" class="f">line</text><text x="19.038" y="1.67" class="f">27</text><text x="22.044" y="1.67" class="f">in</text><text x="25.05" y="1.67" class="f">tests/comments.kt</text></symbol><symbol id="45"><path class="l" d="M0 0h6v2.171H0z"/><text y="1.67" class="h">FAIL</text><text x="7.014" y="1.67" class="f">tests/</text><text x="13.026" y="1.67" class="i">post.kt</text></symbol><symbol id="46"><text x="1.002" y="1.67" class="f">‣</text><text x="3.006" y="1.67" class="f">Failure</text><text x="11.022" y="1.67" class="f">on</text><text x="14.028" y="1.67" class="f">line</text><text x="19.038" y="1.67" class="f">1</text><text x="21.042" y="1.67" class="f">in</text><text x="24.048" y="1.67" class="f">tests/post.kt</text></symbol><symbol id="47"><text y="1.67" class="f">Tests:</text><text x="7.014" y="1.67" class="n">4</text><text x="9.018" y="1.67" class="n">failed</text><text x="15.03" y="1.67" class="f">,</text><text x="17.034" y="1.67" class="o">6</text><text x="19.038" y="1.67" class="o">passed</text><text x="25.05" y="1.67" class="f">,</text><text x="27.054" y="1.67" class="f">10</text><text x="30.06" y="1.67" class="f">total</text></symbol><symbol id="a"><path fill="transparent" d="M0 0h60v17H0z"/></symbol></defs><path class="a" d="M0 0h60v34.736H0z"/><g style="animation-duration:12.213989999999999s;animation-iteration-count:infinite;animation-name:q;animation-timing-function:steps(1,end)"><svg width="2220"><svg><use xlink:href="#a"/><text y="1.67" class="f">Tests:</text><text x="7.014" y="1.67" class="f">10</text><text x="10.02" y="1.67" class="f">total</text><use xlink:href="#1" y="2.171"/></svg><svg x="60"><use xlink:href="#a"/><use xlink:href="#2"/><use xlink:href="#3" y="2.171"/><use xlink:href="#4" y="4.342"/><use xlink:href="#5" y="6.513"/><use xlink:href="#6" y="10.855"/><use xlink:href="#1" y="13.026"/><use xlink:href="#7" y="15.197"/></svg><svg x="120"><use xlink:href="#a"/><use xlink:href="#2"/><use xlink:href="#3" y="2.171"/><use xlink:href="#4" y="4.342"/><use xlink:href="#5" y="6.513"/><use xlink:href="#6" y="10.855"/><use xlink:href="#1" y="13.026"/><use xlink:href="#8" y="15.197"/></svg><svg x="180"><use xlink:href="#a"/><use xlink:href="#2"/><use xlink:href="#3" y="2.171"/><use xlink:href="#4" y="4.342"/><use xlink:href="#5" y="6.513"/><use xlink:href="#6" y="10.855"/><use xlink:href="#9" y="13.026"/><use xlink:href="#8" y="15.197"/></svg><svg x="240"><use xlink:href="#a"/><use xlink:href="#2"/><use xlink:href="#3" y="2.171"/><use xlink:href="#4" y="4.342"/><use xlink:href="#5" y="6.513"/><use xlink:href="#6" y="10.855"/><use xlink:href="#9" y="13.026"/><use xlink:href="#7" y="15.197"/></svg><svg x="300"><use xlink:href="#a"/><use xlink:href="#2"/><use xlink:href="#3" y="2.171"/><use xlink:href="#4" y="4.342"/><use xlink:href="#5" y="6.513"/><use xlink:href="#6" y="10.855"/><use xlink:href="#9" y="13.026"/><use xlink:href="#8" y="15.197"/></svg><svg x="360"><use xlink:href="#a"/><use xlink:href="#2"/><use xlink:href="#3" y="2.171"/><use xlink:href="#4" y="4.342"/><use xlink:href="#5" y="6.513"/><use xlink:href="#6" y="10.855"/><use xlink:href="#10" y="13.026"/><use xlink:href="#8" y="15.197"/></svg><svg x="420"><use xlink:href="#a"/><use xlink:href="#2"/><use xlink:href="#3" y="2.171"/><use xlink:href="#4" y="4.342"/><use xlink:href="#5" y="6.513"/><use xlink:href="#6" y="10.855"/><use xlink:href="#10" y="13.026"/><use xlink:href="#7" y="15.197"/></svg><svg x="480"><use xlink:href="#a"/><use xlink:href="#2"/><use xlink:href="#3" y="2.171"/><use xlink:href="#4" y="4.342"/><use xlink:href="#5" y="6.513"/><use xlink:href="#6" y="10.855"/><use xlink:href="#10" y="13.026"/><use xlink:href="#8" y="15.197"/></svg><svg x="540"><use xlink:href="#a"/><use xlink:href="#2"/><use xlink:href="#3" y="2.171"/><use xlink:href="#4" y="4.342"/><use xlink:href="#5" y="6.513"/><use xlink:href="#6" y="10.855"/><use xlink:href="#11" y="13.026"/><use xlink:href="#8" y="15.197"/></svg><svg x="600"><use xlink:href="#a"/><use xlink:href="#2"/><use xlink:href="#3" y="2.171"/><use xlink:href="#4" y="4.342"/><use xlink:href="#5" y="6.513"/><use xlink:href="#6" y="10.855"/><use xlink:href="#11" y="13.026"/><use xlink:href="#7" y="15.197"/></svg><svg x="660"><use xlink:href="#a"/><use xlink:href="#12"/><use xlink:href="#13" y="2.171"/><use xlink:href="#14" y="4.342"/><use xlink:href="#3" y="8.684"/><use xlink:href="#4" y="10.855"/><use xlink:href="#5" y="13.026"/><use xlink:href="#15" y="15.197"/><text y="21.209" class="f">Tests:</text><text x="7.014" y="21.209" class="n">1</text><text x="9.018" y="21.209" class="n">failed</text><text x="15.03" y="21.209" class="f">,</text><text x="17.034" y="21.209" class="j">4</text><text x="19.038" y="21.209" class="j">running</text><text x="26.052" y="21.209" class="f">,</text><text x="28.056" y="21.209" class="f">10</text><text x="31.062" y="21.209" class="f">total</text><use xlink:href="#11" y="21.71"/><path class="l" d="M0 23.881h4v2.171H0z"/><text y="25.551" class="f"></text><path class="g" d="M4.008 23.881h16v2.171h-16z"/><text x="4.008" y="25.551" class="f"></text><path class="k" d="M20.04 23.881h20v2.171h-20z"/><text x="20.04" y="25.551" class="f"></text></svg><svg x="720"><use xlink:href="#a"/><use xlink:href="#12"/><use xlink:href="#13" y="2.171"/><use xlink:href="#14" y="4.342"/><use xlink:href="#16" y="8.684"/><use xlink:href="#3" y="13.026"/><use xlink:href="#4" y="15.197"/><use xlink:href="#15" y="17.368"/><use xlink:href="#17" y="19.539"/><text y="25.551" class="f">Tests:</text><text x="7.014" y="25.551" class="n">1</text><text x="9.018" y="25.551" class="n">failed</text><text x="15.03" y="25.551" class="f">,</text><text x="17.034" y="25.551" class="o">1</text><text x="19.038" y="25.551" class="o">passed</text><text x="25.05" y="25.551" class="f">,</text><text x="27.054" y="25.551" class="j">4</text><text x="29.058" y="25.551" class="j">running</text><text x="36.072" y="25.551" class="f">,</text><text x="38.076" y="25.551" class="f">10</text><text x="41.082" y="25.551" class="f">total</text><use xlink:href="#11" y="26.052"/><path class="l" d="M0 28.223h4v2.171H0z"/><text y="29.893" class="f"></text><path class="m" d="M4.008 28.223h4v2.171h-4z"/><text x="4.008" y="29.893" class="f"></text><path class="k" d="M8.016 28.223h32v2.171h-32z"/><text x="8.016" y="29.893" class="f"></text></svg><svg x="780"><use xlink:href="#a"/><use xlink:href="#12"/><use xlink:href="#13" y="2.171"/><use xlink:href="#14" y="4.342"/><use xlink:href="#16" y="8.684"/><use xlink:href="#18" y="10.855"/><use xlink:href="#3" y="15.197"/><use xlink:href="#15" y="17.368"/><use xlink:href="#17" y="19.539"/><use xlink:href="#19" y="21.71"/><text y="27.722" class="f">Tests:</text><text x="7.014" y="27.722" class="n">1</text><text x="9.018" y="27.722" class="n">failed</text><text x="15.03" y="27.722" class="f">,</text><text x="17.034" y="27.722" class="o">2</text><text x="19.038" y="27.722" class="o">passed</text><text x="25.05" y="27.722" class="f">,</text><text x="27.054" y="27.722" class="j">4</text><text x="29.058" y="27.722" class="j">running</text><text x="36.072" y="27.722" class="f">,</text><text x="38.076" y="27.722" class="f">10</text><text x="41.082" y="27.722" class="f">total</text><use xlink:href="#11" y="28.223"/><path class="l" d="M0 30.394h4v2.171H0z"/><text y="32.064" class="f"></text><path class="m" d="M4.008 30.394h8v2.171h-8z"/><text x="4.008" y="32.064" class="f"></text><path class="k" d="M12.024 30.394h28v2.171h-28z"/><text x="12.024" y="32.064" class="f"></text></svg><svg x="840"><use xlink:href="#a"/><use xlink:href="#13"/><use xlink:href="#14" y="2.171"/><use xlink:href="#16" y="6.513"/><use xlink:href="#18" y="8.684"/><use xlink:href="#20" y="10.855"/><use xlink:href="#21" y="13.026"/><use xlink:href="#15" y="17.368"/><use xlink:href="#17" y="19.539"/><use xlink:href="#19" y="21.71"/><use xlink:href="#22" y="23.881"/><use xlink:href="#23" y="28.223"/><use xlink:href="#11" y="30.394"/><use xlink:href="#24" y="32.565"/></svg><svg x="900"><use xlink:href="#a"/><use xlink:href="#13"/><use xlink:href="#14" y="2.171"/><use xlink:href="#16" y="6.513"/><use xlink:href="#18" y="8.684"/><use xlink:href="#20" y="10.855"/><use xlink:href="#21" y="13.026"/><use xlink:href="#15" y="17.368"/><use xlink:href="#17" y="19.539"/><use xlink:href="#19" y="21.71"/><use xlink:href="#22" y="23.881"/><use xlink:href="#23" y="28.223"/><use xlink:href="#25" y="30.394"/><use xlink:href="#24" y="32.565"/></svg><svg x="960"><use xlink:href="#a"/><use xlink:href="#13"/><use xlink:href="#14" y="2.171"/><use xlink:href="#16" y="6.513"/><use xlink:href="#18" y="8.684"/><use xlink:href="#20" y="10.855"/><use xlink:href="#21" y="13.026"/><use xlink:href="#15" y="17.368"/><use xlink:href="#17" y="19.539"/><use xlink:href="#19" y="21.71"/><use xlink:href="#22" y="23.881"/><use xlink:href="#23" y="28.223"/><use xlink:href="#25" y="30.394"/><use xlink:href="#26" y="32.565"/></svg><svg x="1020"><use xlink:href="#a"/><use xlink:href="#13"/><use xlink:href="#14" y="2.171"/><use xlink:href="#16" y="6.513"/><use xlink:href="#18" y="8.684"/><use xlink:href="#20" y="10.855"/><use xlink:href="#21" y="13.026"/><use xlink:href="#15" y="17.368"/><use xlink:href="#17" y="19.539"/><use xlink:href="#19" y="21.71"/><use xlink:href="#22" y="23.881"/><use xlink:href="#23" y="28.223"/><use xlink:href="#25" y="30.394"/><use xlink:href="#24" y="32.565"/></svg><svg x="1080"><use xlink:href="#a"/><use xlink:href="#13"/><use xlink:href="#14" y="2.171"/><use xlink:href="#16" y="6.513"/><use xlink:href="#18" y="8.684"/><use xlink:href="#20" y="10.855"/><use xlink:href="#21" y="13.026"/><use xlink:href="#15" y="17.368"/><use xlink:href="#17" y="19.539"/><use xlink:href="#19" y="21.71"/><use xlink:href="#22" y="23.881"/><use xlink:href="#23" y="28.223"/><use xlink:href="#27" y="30.394"/><use xlink:href="#24" y="32.565"/></svg><svg x="1140"><use xlink:href="#a"/><use xlink:href="#13"/><use xlink:href="#14" y="2.171"/><use xlink:href="#16" y="6.513"/><use xlink:href="#18" y="8.684"/><use xlink:href="#20" y="10.855"/><use xlink:href="#21" y="13.026"/><use xlink:href="#15" y="17.368"/><use xlink:href="#17" y="19.539"/><use xlink:href="#19" y="21.71"/><use xlink:href="#22" y="23.881"/><use xlink:href="#23" y="28.223"/><use xlink:href="#27" y="30.394"/><use xlink:href="#26" y="32.565"/></svg><svg x="1200"><use xlink:href="#a"/><use xlink:href="#13"/><use xlink:href="#14" y="2.171"/><use xlink:href="#16" y="6.513"/><use xlink:href="#18" y="8.684"/><use xlink:href="#20" y="10.855"/><use xlink:href="#21" y="13.026"/><use xlink:href="#15" y="17.368"/><use xlink:href="#17" y="19.539"/><use xlink:href="#19" y="21.71"/><use xlink:href="#22" y="23.881"/><use xlink:href="#23" y="28.223"/><use xlink:href="#27" y="30.394"/><use xlink:href="#24" y="32.565"/></svg><svg x="1260"><use xlink:href="#a"/><use xlink:href="#13"/><use xlink:href="#14" y="2.171"/><use xlink:href="#16" y="6.513"/><use xlink:href="#18" y="8.684"/><use xlink:href="#20" y="10.855"/><use xlink:href="#21" y="13.026"/><use xlink:href="#15" y="17.368"/><use xlink:href="#17" y="19.539"/><use xlink:href="#19" y="21.71"/><use xlink:href="#22" y="23.881"/><use xlink:href="#23" y="28.223"/><use xlink:href="#28" y="30.394"/><use xlink:href="#24" y="32.565"/></svg><svg x="1320"><use xlink:href="#a"/><use xlink:href="#13"/><use xlink:href="#14" y="2.171"/><use xlink:href="#16" y="6.513"/><use xlink:href="#18" y="8.684"/><use xlink:href="#20" y="10.855"/><use xlink:href="#21" y="13.026"/><use xlink:href="#15" y="17.368"/><use xlink:href="#17" y="19.539"/><use xlink:href="#19" y="21.71"/><use xlink:href="#22" y="23.881"/><use xlink:href="#23" y="28.223"/><use xlink:href="#28" y="30.394"/><use xlink:href="#26" y="32.565"/></svg><svg x="1380"><use xlink:href="#a"/><use xlink:href="#13"/><use xlink:href="#14" y="2.171"/><use xlink:href="#16" y="6.513"/><use xlink:href="#18" y="8.684"/><use xlink:href="#20" y="10.855"/><use xlink:href="#21" y="13.026"/><use xlink:href="#15" y="17.368"/><use xlink:href="#17" y="19.539"/><use xlink:href="#19" y="21.71"/><use xlink:href="#22" y="23.881"/><use xlink:href="#23" y="28.223"/><use xlink:href="#28" y="30.394"/><use xlink:href="#24" y="32.565"/></svg><svg x="1440"><use xlink:href="#a"/><use xlink:href="#16" y="2.171"/><use xlink:href="#18" y="4.342"/><use xlink:href="#20" y="6.513"/><use xlink:href="#21" y="8.684"/><use xlink:href="#29" y="13.026"/><use xlink:href="#17" y="17.368"/><use xlink:href="#19" y="19.539"/><use xlink:href="#22" y="21.71"/><use xlink:href="#30" y="23.881"/><text y="29.893" class="f">Tests:</text><text x="7.014" y="29.893" class="n">2</text><text x="9.018" y="29.893" class="n">failed</text><text x="15.03" y="29.893" class="f">,</text><text x="17.034" y="29.893" class="o">3</text><text x="19.038" y="29.893" class="o">passed</text><text x="25.05" y="29.893" class="f">,</text><text x="27.054" y="29.893" class="j">4</text><text x="29.058" y="29.893" class="j">running</text><text x="36.072" y="29.893" class="f">,</text><text x="38.076" y="29.893" class="f">10</text><text x="41.082" y="29.893" class="f">total</text><use xlink:href="#28" y="30.394"/><path class="l" d="M0 32.565h8v2.171H0z"/><text y="34.235" class="f"></text><path class="m" d="M8.016 32.565h12v2.171h-12z"/><text x="8.016" y="34.235" class="f"></text><path class="k" d="M20.04 32.565h20v2.171h-20z"/><text x="20.04" y="34.235" class="f"></text></svg><svg x="1500"><use xlink:href="#a"/><use xlink:href="#16"/><use xlink:href="#18" y="2.171"/><use xlink:href="#20" y="4.342"/><use xlink:href="#21" y="6.513"/><use xlink:href="#29" y="10.855"/><use xlink:href="#31" y="13.026"/><use xlink:href="#19" y="17.368"/><use xlink:href="#22" y="19.539"/><use xlink:href="#30" y="21.71"/><use xlink:href="#32" y="23.881"/><text y="29.893" class="f">Tests:</text><text x="7.014" y="29.893" class="n">2</text><text x="9.018" y="29.893" class="n">failed</text><text x="15.03" y="29.893" class="f">,</text><text x="17.034" y="29.893" class="o">4</text><text x="19.038" y="29.893" class="o">passed</text><text x="25.05" y="29.893" class="f">,</text><text x="27.054" y="29.893" class="j">4</text><text x="29.058" y="29.893" class="j">running</text><text x="36.072" y="29.893" class="f">,</text><text x="38.076" y="29.893" class="f">10</text><text x="41.082" y="29.893" class="f">total</text><use xlink:href="#33" y="30.394"/><path class="l" d="M0 32.565h8v2.171H0z"/><text y="34.235" class="f"></text><path class="m" d="M8.016 32.565h16v2.171h-16z"/><text x="8.016" y="34.235" class="f"></text><path class="k" d="M24.048 32.565h16v2.171h-16z"/><text x="24.048" y="34.235" class="f"></text></svg><svg x="1560"><use xlink:href="#a"/><use xlink:href="#16"/><use xlink:href="#18" y="2.171"/><use xlink:href="#20" y="4.342"/><use xlink:href="#21" y="6.513"/><use xlink:href="#29" y="10.855"/><use xlink:href="#31" y="13.026"/><use xlink:href="#34" y="15.197"/><use xlink:href="#19" y="19.539"/><use xlink:href="#30" y="21.71"/><use xlink:href="#32" y="23.881"/><text y="29.893" class="f">Tests:</text><text x="7.014" y="29.893" class="n">2</text><text x="9.018" y="29.893" class="n">failed</text><text x="15.03" y="29.893" class="f">,</text><text x="17.034" y="29.893" class="o">5</text><text x="19.038" y="29.893" class="o">passed</text><text x="25.05" y="29.893" class="f">,</text><text x="27.054" y="29.893" class="j">3</text><text x="29.058" y="29.893" class="j">running</text><text x="36.072" y="29.893" class="f">,</text><text x="38.076" y="29.893" class="f">10</text><text x="41.082" y="29.893" class="f">total</text><use xlink:href="#33" y="30.394"/><path class="l" d="M0 32.565h8v2.171H0z"/><text y="34.235" class="f"></text><path class="m" d="M8.016 32.565h20v2.171h-20z"/><text x="8.016" y="34.235" class="f"></text><path class="g" d="M28.056 32.565h12v2.171h-12z"/><text x="28.056" y="34.235" class="f"></text></svg><svg x="1620"><use xlink:href="#a"/><use xlink:href="#16"/><use xlink:href="#18" y="2.171"/><use xlink:href="#20" y="4.342"/><use xlink:href="#21" y="6.513"/><use xlink:href="#29" y="10.855"/><use xlink:href="#31" y="13.026"/><use xlink:href="#34" y="15.197"/><use xlink:href="#35" y="17.368"/><use xlink:href="#30" y="21.71"/><use xlink:href="#32" y="23.881"/><use xlink:href="#36" y="28.223"/><use xlink:href="#33" y="30.394"/><use xlink:href="#37" y="32.565"/></svg><svg x="1680"><use xlink:href="#a"/><use xlink:href="#16"/><use xlink:href="#18" y="2.171"/><use xlink:href="#20" y="4.342"/><use xlink:href="#21" y="6.513"/><use xlink:href="#29" y="10.855"/><use xlink:href="#31" y="13.026"/><use xlink:href="#34" y="15.197"/><use xlink:href="#35" y="17.368"/><use xlink:href="#30" y="21.71"/><use xlink:href="#32" y="23.881"/><use xlink:href="#36" y="28.223"/><use xlink:href="#38" y="30.394"/><use xlink:href="#37" y="32.565"/></svg><svg x="1740"><use xlink:href="#a"/><use xlink:href="#16"/><use xlink:href="#18" y="2.171"/><use xlink:href="#20" y="4.342"/><use xlink:href="#21" y="6.513"/><use xlink:href="#29" y="10.855"/><use xlink:href="#31" y="13.026"/><use xlink:href="#34" y="15.197"/><use xlink:href="#35" y="17.368"/><use xlink:href="#30" y="21.71"/><use xlink:href="#32" y="23.881"/><use xlink:href="#36" y="28.223"/><use xlink:href="#38" y="30.394"/><use xlink:href="#39" y="32.565"/></svg><svg x="1800"><use xlink:href="#a"/><use xlink:href="#16"/><use xlink:href="#18" y="2.171"/><use xlink:href="#20" y="4.342"/><use xlink:href="#21" y="6.513"/><use xlink:href="#29" y="10.855"/><use xlink:href="#31" y="13.026"/><use xlink:href="#34" y="15.197"/><use xlink:href="#35" y="17.368"/><use xlink:href="#30" y="21.71"/><use xlink:href="#32" y="23.881"/><use xlink:href="#36" y="28.223"/><use xlink:href="#38" y="30.394"/><use xlink:href="#37" y="32.565"/></svg><svg x="1860"><use xlink:href="#a"/><use xlink:href="#16"/><use xlink:href="#18" y="2.171"/><use xlink:href="#20" y="4.342"/><use xlink:href="#21" y="6.513"/><use xlink:href="#29" y="10.855"/><use xlink:href="#31" y="13.026"/><use xlink:href="#34" y="15.197"/><use xlink:href="#35" y="17.368"/><use xlink:href="#30" y="21.71"/><use xlink:href="#32" y="23.881"/><use xlink:href="#36" y="28.223"/><use xlink:href="#40" y="30.394"/><use xlink:href="#37" y="32.565"/></svg><svg x="1920"><use xlink:href="#a"/><use xlink:href="#16"/><use xlink:href="#18" y="2.171"/><use xlink:href="#20" y="4.342"/><use xlink:href="#21" y="6.513"/><use xlink:href="#29" y="10.855"/><use xlink:href="#31" y="13.026"/><use xlink:href="#34" y="15.197"/><use xlink:href="#35" y="17.368"/><use xlink:href="#30" y="21.71"/><use xlink:href="#32" y="23.881"/><use xlink:href="#36" y="28.223"/><use xlink:href="#40" y="30.394"/><use xlink:href="#39" y="32.565"/></svg><svg x="1980"><use xlink:href="#a"/><use xlink:href="#16"/><use xlink:href="#18" y="2.171"/><use xlink:href="#20" y="4.342"/><use xlink:href="#21" y="6.513"/><use xlink:href="#29" y="10.855"/><use xlink:href="#31" y="13.026"/><use xlink:href="#34" y="15.197"/><use xlink:href="#35" y="17.368"/><use xlink:href="#30" y="21.71"/><use xlink:href="#32" y="23.881"/><use xlink:href="#36" y="28.223"/><use xlink:href="#40" y="30.394"/><use xlink:href="#37" y="32.565"/></svg><svg x="2040"><use xlink:href="#a"/><use xlink:href="#16"/><use xlink:href="#18" y="2.171"/><use xlink:href="#20" y="4.342"/><use xlink:href="#21" y="6.513"/><use xlink:href="#29" y="10.855"/><use xlink:href="#31" y="13.026"/><use xlink:href="#34" y="15.197"/><use xlink:href="#35" y="17.368"/><use xlink:href="#30" y="21.71"/><use xlink:href="#32" y="23.881"/><use xlink:href="#36" y="28.223"/><use xlink:href="#41" y="30.394"/><use xlink:href="#37" y="32.565"/></svg><svg x="2100"><use xlink:href="#a"/><use xlink:href="#20"/><use xlink:href="#21" y="2.171"/><use xlink:href="#29" y="6.513"/><use xlink:href="#31" y="8.684"/><use xlink:href="#34" y="10.855"/><use xlink:href="#35" y="13.026"/><use xlink:href="#42" y="15.197"/><use xlink:href="#43" y="17.368"/><use xlink:href="#44" y="19.539"/><use xlink:href="#45" y="23.881"/><use xlink:href="#46" y="26.052"/><use xlink:href="#47" y="30.394"/><use xlink:href="#41" y="32.565"/></svg><svg x="2160"><use xlink:href="#a"/><use xlink:href="#21"/><use xlink:href="#29" y="4.342"/><use xlink:href="#31" y="6.513"/><use xlink:href="#34" y="8.684"/><use xlink:href="#35" y="10.855"/><use xlink:href="#42" y="13.026"/><use xlink:href="#43" y="15.197"/><use xlink:href="#44" y="17.368"/><use xlink:href="#45" y="21.71"/><use xlink:href="#46" y="23.881"/><use xlink:href="#47" y="28.223"/><use xlink:href="#41" y="30.394"/></svg></svg></g></g></svg></svg>